# xmcd CD database file
#
# Track frame offsets:
#	150
#	34960
#	46454
#	74111
#	98213
#	112808
#	126919
#	147844
#	168878
#	186807
#	206676
#	218088
#	239982
#	259410
#	294871
#
# Disc length: 4338 seconds
#
# Revision: 0
# Processed by: cddbd v1.5PL3 Copyright (c) Steve Scherf et al.
# Submitted via: CDex 1.51
#
DISCID=ee10f00f
DTITLE=varouis artist - charanga de oro
DYEAR=1900
DGENRE=Salsa
TTITLE0=charangas
TTITLE1=lajicotea
TTITLE2=pare cochero
TTITLE3=vamos para oriente
TTITLE4=encendido
TTITLE5=carmelina
TTITLE6=es por ti
TTITLE7=vacilay no contamines
TTITLE8=a santa barbara
TTITLE9=me voy pa abijan
TTITLE10=guarija guantanamera
TTITLE11=el layoff
TTITLE12=hay que gozar la vida
TTITLE13=la batalla de los barrios
TTITLE14=tres lindas cubanas
EXTD=
EXTT0=
EXTT1=
EXTT2=
EXTT3=
EXTT4=
EXTT5=
EXTT6=
EXTT7=
EXTT8=
EXTT9=
EXTT10=
EXTT11=
EXTT12=
EXTT13=
EXTT14=
PLAYORDER=
